<svg xmlns="http://www.w3.org/2000/svg" viewBox="0 0 128 128">
  <defs>
    <linearGradient id="bg" x1="0" x2="1" y1="0" y2="1">
      <stop offset="0%" stop-color="#e8f5e8"/>
      <stop offset="100%" stop-color="#c8f1df"/>
    </linearGradient>
    <linearGradient id="cup" x1="0" x2="1" y1="0" y2="1">
      <stop offset="0%" stop-color="#ffffff"/>
      <stop offset="100%" stop-color="#f8fafc"/>
    </linearGradient>
    <filter id="shadow">
      <feDropShadow dx="2" dy="4" stdDeviation="3" flood-opacity="0.15"/>
    </filter>
  </defs>
  
  <!-- Background circle with soft gradient -->
  <circle cx="64" cy="64" r="60" fill="url(#bg)" stroke="#b9e3c6" stroke-width="2"/>
  
  <!-- Main coffee cup -->
  <g filter="url(#shadow)">
    <path d="M28 52h52v14a22 22 0 0 1-22 22H50A22 22 0 0 1 28 66V52z" 
          fill="url(#cup)" stroke="#0f172a" stroke-width="3" stroke-linejoin="round"/>
    <!-- Handle -->
    <path d="M80 58h10a10 10 0 1 1-10 10" fill="none" stroke="#0f172a" stroke-width="3" stroke-linecap="round"/>
  </g>
  
  <!-- Elegant steam -->
  <g fill="none" stroke="#7dd3fc" stroke-width="2.5" stroke-linecap="round" opacity="0.8">
    <path d="M45 38c-2 4-1 8 1 12"/>
    <path d="M54 36c-2 4-1 8 1 12"/>
    <path d="M63 38c-2 4-1 8 1 12"/>
  </g>
  
  <!-- Happy face -->
  <g fill="#0f172a">
    <circle cx="45" cy="64" r="2.5"/>
    <circle cx="63" cy="64" r="2.5"/>
  </g>
  <path d="M40 72c6 6 16 6 22 0" fill="none" stroke="#0f172a" stroke-width="3" stroke-linecap="round"/>
  
  <!-- Decorative coin with tips symbol -->
  <g transform="translate(85,85)">
    <circle r="18" fill="#fbbf24" stroke="#f59e0b" stroke-width="2"/>
    <circle r="15" fill="#fcd34d"/>
    <text x="0" y="6" text-anchor="middle" font-family="Arial" font-size="16" font-weight="bold" fill="#92400e">₽</text>
  </g>
  
  <!-- Small decorative hearts -->
  <g fill="#f472b6" opacity="0.6">
    <path d="M20 30c-2-2-6-2-6 2 0 4 6 6 6 6s6-2 6-6c0-4-4-4-6-2z" transform="scale(0.6)"/>
    <path d="M100 25c-2-2-6-2-6 2 0 4 6 6 6 6s6-2 6-6c0-4-4-4-6-2z" transform="scale(0.5)"/>
  </g>
</svg>
